<mxfile host="app.diagrams.net" modified="2024-07-02T16:57:18.110Z" agent="Mozilla/5.0 (Windows NT 10.0; Win64; x64) AppleWebKit/537.36 (KHTML, like Gecko) Chrome/126.0.0.0 Safari/537.36 Edg/126.0.0.0" etag="t0j-liRXTbPAJTFGd7ZK" version="24.6.4" type="device">
  <diagram name="Page-1" id="_F12No95Dk4UT3vxhnd5">
    <mxGraphModel dx="2316" dy="2382" grid="1" gridSize="10" guides="1" tooltips="1" connect="1" arrows="1" fold="1" page="1" pageScale="1" pageWidth="850" pageHeight="1100" math="0" shadow="0">
      <root>
        <mxCell id="0" />
        <mxCell id="1" parent="0" />
        <mxCell id="zqzZi_88nzhMAVSUNbBX-1" value="Quan ly" style="shape=umlActor;verticalLabelPosition=bottom;verticalAlign=top;html=1;outlineConnect=0;" parent="1" vertex="1">
          <mxGeometry x="428.5" y="110" width="30" height="60" as="geometry" />
        </mxCell>
        <mxCell id="zqzZi_88nzhMAVSUNbBX-4" value="Quản lý tài khoản&amp;nbsp;" style="ellipse;whiteSpace=wrap;html=1;" parent="1" vertex="1">
          <mxGeometry x="508.5" y="-70" width="110" height="70" as="geometry" />
        </mxCell>
        <mxCell id="zqzZi_88nzhMAVSUNbBX-6" value="Quản lý bàn" style="ellipse;whiteSpace=wrap;html=1;" parent="1" vertex="1">
          <mxGeometry x="528.5" y="20" width="120" height="80" as="geometry" />
        </mxCell>
        <mxCell id="zqzZi_88nzhMAVSUNbBX-7" value="Quản lý mặt hàng" style="ellipse;whiteSpace=wrap;html=1;" parent="1" vertex="1">
          <mxGeometry x="538.5" y="110" width="120" height="80" as="geometry" />
        </mxCell>
        <mxCell id="zqzZi_88nzhMAVSUNbBX-8" value="Quản lý hóa đơn" style="ellipse;whiteSpace=wrap;html=1;" parent="1" vertex="1">
          <mxGeometry x="550" y="200" width="120" height="80" as="geometry" />
        </mxCell>
        <mxCell id="zqzZi_88nzhMAVSUNbBX-9" value="Thống kê" style="ellipse;whiteSpace=wrap;html=1;" parent="1" vertex="1">
          <mxGeometry x="523.5" y="290" width="120" height="80" as="geometry" />
        </mxCell>
        <mxCell id="zqzZi_88nzhMAVSUNbBX-10" value="" style="endArrow=classic;html=1;rounded=0;exitX=1;exitY=0.3333333333333333;exitDx=0;exitDy=0;exitPerimeter=0;entryX=0.007;entryY=0.777;entryDx=0;entryDy=0;entryPerimeter=0;" parent="1" source="zqzZi_88nzhMAVSUNbBX-1" target="zqzZi_88nzhMAVSUNbBX-4" edge="1">
          <mxGeometry width="50" height="50" relative="1" as="geometry">
            <mxPoint x="668.5" y="220" as="sourcePoint" />
            <mxPoint x="718.5" y="170" as="targetPoint" />
          </mxGeometry>
        </mxCell>
        <mxCell id="zqzZi_88nzhMAVSUNbBX-11" value="" style="endArrow=classic;html=1;rounded=0;exitX=1;exitY=0.3333333333333333;exitDx=0;exitDy=0;exitPerimeter=0;entryX=0;entryY=0.5;entryDx=0;entryDy=0;" parent="1" source="zqzZi_88nzhMAVSUNbBX-1" target="zqzZi_88nzhMAVSUNbBX-6" edge="1">
          <mxGeometry width="50" height="50" relative="1" as="geometry">
            <mxPoint x="508.5" y="40" as="sourcePoint" />
            <mxPoint x="619.5" y="-46" as="targetPoint" />
          </mxGeometry>
        </mxCell>
        <mxCell id="zqzZi_88nzhMAVSUNbBX-12" value="" style="endArrow=classic;html=1;rounded=0;entryX=-0.013;entryY=0.61;entryDx=0;entryDy=0;entryPerimeter=0;" parent="1" source="zqzZi_88nzhMAVSUNbBX-1" target="zqzZi_88nzhMAVSUNbBX-7" edge="1">
          <mxGeometry width="50" height="50" relative="1" as="geometry">
            <mxPoint x="418.5" y="266" as="sourcePoint" />
            <mxPoint x="529.5" y="180" as="targetPoint" />
          </mxGeometry>
        </mxCell>
        <mxCell id="zqzZi_88nzhMAVSUNbBX-13" value="" style="endArrow=classic;html=1;rounded=0;entryX=0;entryY=0.5;entryDx=0;entryDy=0;" parent="1" source="zqzZi_88nzhMAVSUNbBX-1" target="zqzZi_88nzhMAVSUNbBX-8" edge="1">
          <mxGeometry width="50" height="50" relative="1" as="geometry">
            <mxPoint x="408.5" y="346" as="sourcePoint" />
            <mxPoint x="519.5" y="260" as="targetPoint" />
          </mxGeometry>
        </mxCell>
        <mxCell id="zqzZi_88nzhMAVSUNbBX-14" value="" style="endArrow=classic;html=1;rounded=0;entryX=0.088;entryY=0.205;entryDx=0;entryDy=0;entryPerimeter=0;" parent="1" source="zqzZi_88nzhMAVSUNbBX-1" target="zqzZi_88nzhMAVSUNbBX-9" edge="1">
          <mxGeometry width="50" height="50" relative="1" as="geometry">
            <mxPoint x="408.5" y="280" as="sourcePoint" />
            <mxPoint x="458.5" y="230" as="targetPoint" />
          </mxGeometry>
        </mxCell>
        <mxCell id="zqzZi_88nzhMAVSUNbBX-15" value="Phuc vu" style="shape=umlActor;verticalLabelPosition=bottom;verticalAlign=top;html=1;outlineConnect=0;" parent="1" vertex="1">
          <mxGeometry x="970" y="60" width="30" height="60" as="geometry" />
        </mxCell>
        <mxCell id="zqzZi_88nzhMAVSUNbBX-16" value="Quản lý đơn đặt món" style="ellipse;whiteSpace=wrap;html=1;" parent="1" vertex="1">
          <mxGeometry x="770" y="-10" width="120" height="80" as="geometry" />
        </mxCell>
        <mxCell id="zqzZi_88nzhMAVSUNbBX-17" value="" style="endArrow=classic;html=1;rounded=0;entryX=1;entryY=0.5;entryDx=0;entryDy=0;" parent="1" source="zqzZi_88nzhMAVSUNbBX-15" target="zqzZi_88nzhMAVSUNbBX-16" edge="1">
          <mxGeometry width="50" height="50" relative="1" as="geometry">
            <mxPoint x="610" y="300" as="sourcePoint" />
            <mxPoint x="660" y="250" as="targetPoint" />
          </mxGeometry>
        </mxCell>
        <mxCell id="zqzZi_88nzhMAVSUNbBX-18" value="Nhan vien bep" style="shape=umlActor;verticalLabelPosition=bottom;verticalAlign=top;html=1;outlineConnect=0;" parent="1" vertex="1">
          <mxGeometry x="955" y="317.5" width="30" height="60" as="geometry" />
        </mxCell>
        <mxCell id="zqzZi_88nzhMAVSUNbBX-19" value="Thu ngan" style="shape=umlActor;verticalLabelPosition=bottom;verticalAlign=top;html=1;outlineConnect=0;" parent="1" vertex="1">
          <mxGeometry x="1010" y="220" width="30" height="60" as="geometry" />
        </mxCell>
        <mxCell id="zqzZi_88nzhMAVSUNbBX-21" value="Xem, chuyển trạng thái đơn đặt món" style="ellipse;whiteSpace=wrap;html=1;" parent="1" vertex="1">
          <mxGeometry x="790" y="317.5" width="120" height="80" as="geometry" />
        </mxCell>
        <mxCell id="zqzZi_88nzhMAVSUNbBX-22" style="edgeStyle=orthogonalEdgeStyle;rounded=0;orthogonalLoop=1;jettySize=auto;html=1;entryX=1.001;entryY=0.367;entryDx=0;entryDy=0;entryPerimeter=0;" parent="1" source="zqzZi_88nzhMAVSUNbBX-18" target="zqzZi_88nzhMAVSUNbBX-21" edge="1">
          <mxGeometry relative="1" as="geometry" />
        </mxCell>
        <mxCell id="zqzZi_88nzhMAVSUNbBX-23" value="Tìm kiếm mặt hàng" style="ellipse;whiteSpace=wrap;html=1;" parent="1" vertex="1">
          <mxGeometry x="770" y="70" width="120" height="80" as="geometry" />
        </mxCell>
        <mxCell id="zqzZi_88nzhMAVSUNbBX-25" value="" style="endArrow=classic;html=1;rounded=0;entryX=1.017;entryY=0.363;entryDx=0;entryDy=0;entryPerimeter=0;" parent="1" source="zqzZi_88nzhMAVSUNbBX-15" target="zqzZi_88nzhMAVSUNbBX-23" edge="1">
          <mxGeometry width="50" height="50" relative="1" as="geometry">
            <mxPoint x="830" y="220" as="sourcePoint" />
            <mxPoint x="880" y="170" as="targetPoint" />
          </mxGeometry>
        </mxCell>
        <mxCell id="zqzZi_88nzhMAVSUNbBX-29" value="Xác nhận thanh toán" style="ellipse;whiteSpace=wrap;html=1;" parent="1" vertex="1">
          <mxGeometry x="800" y="225" width="120" height="80" as="geometry" />
        </mxCell>
        <mxCell id="zqzZi_88nzhMAVSUNbBX-30" value="" style="endArrow=classic;html=1;rounded=0;entryX=1;entryY=0.5;entryDx=0;entryDy=0;" parent="1" source="zqzZi_88nzhMAVSUNbBX-19" target="zqzZi_88nzhMAVSUNbBX-29" edge="1">
          <mxGeometry width="50" height="50" relative="1" as="geometry">
            <mxPoint x="820" y="600" as="sourcePoint" />
            <mxPoint x="870" y="550" as="targetPoint" />
          </mxGeometry>
        </mxCell>
        <mxCell id="zqzZi_88nzhMAVSUNbBX-32" value="Xem thông báo" style="ellipse;whiteSpace=wrap;html=1;" parent="1" vertex="1">
          <mxGeometry x="880" y="-60" width="120" height="80" as="geometry" />
        </mxCell>
        <mxCell id="zqzZi_88nzhMAVSUNbBX-33" value="" style="endArrow=classic;html=1;rounded=0;exitX=0.25;exitY=0.1;exitDx=0;exitDy=0;exitPerimeter=0;entryX=0.623;entryY=0.992;entryDx=0;entryDy=0;entryPerimeter=0;" parent="1" source="zqzZi_88nzhMAVSUNbBX-15" target="zqzZi_88nzhMAVSUNbBX-32" edge="1">
          <mxGeometry width="50" height="50" relative="1" as="geometry">
            <mxPoint x="890" y="10" as="sourcePoint" />
            <mxPoint x="940" y="-40" as="targetPoint" />
          </mxGeometry>
        </mxCell>
        <mxCell id="zqzZi_88nzhMAVSUNbBX-34" value="&lt;font style=&quot;font-size: 27px;&quot;&gt;Biểu đồ Use case chung&lt;/font&gt;" style="text;html=1;align=center;verticalAlign=middle;whiteSpace=wrap;rounded=0;" parent="1" vertex="1">
          <mxGeometry x="442" y="440" width="640" height="30" as="geometry" />
        </mxCell>
        <mxCell id="zqzZi_88nzhMAVSUNbBX-35" value="Phuc vu" style="shape=umlActor;verticalLabelPosition=bottom;verticalAlign=top;html=1;outlineConnect=0;" parent="1" vertex="1">
          <mxGeometry x="250" y="975" width="30" height="60" as="geometry" />
        </mxCell>
        <mxCell id="zqzZi_88nzhMAVSUNbBX-37" value="Tìm kiếm mặt hàng" style="ellipse;whiteSpace=wrap;html=1;" parent="1" vertex="1">
          <mxGeometry x="565" y="790" width="120" height="50" as="geometry" />
        </mxCell>
        <mxCell id="zqzZi_88nzhMAVSUNbBX-38" value="Chọn bàn" style="ellipse;whiteSpace=wrap;html=1;" parent="1" vertex="1">
          <mxGeometry x="458.5" y="977.5" width="120" height="50" as="geometry" />
        </mxCell>
        <mxCell id="zqzZi_88nzhMAVSUNbBX-39" value="Chọn mặt hàng" style="ellipse;whiteSpace=wrap;html=1;" parent="1" vertex="1">
          <mxGeometry x="565" y="890" width="115" height="60" as="geometry" />
        </mxCell>
        <mxCell id="zqzZi_88nzhMAVSUNbBX-47" value="Extend" style="endArrow=open;endSize=12;dashed=1;html=1;rounded=0;exitX=0.547;exitY=1.056;exitDx=0;exitDy=0;entryX=0.574;entryY=-0.008;entryDx=0;entryDy=0;entryPerimeter=0;exitPerimeter=0;" parent="1" source="zqzZi_88nzhMAVSUNbBX-37" target="zqzZi_88nzhMAVSUNbBX-39" edge="1">
          <mxGeometry width="160" relative="1" as="geometry">
            <mxPoint x="491.5" y="970" as="sourcePoint" />
            <mxPoint x="825" y="950" as="targetPoint" />
          </mxGeometry>
        </mxCell>
        <mxCell id="zqzZi_88nzhMAVSUNbBX-48" value="" style="endArrow=classic;html=1;rounded=0;" parent="1" source="zqzZi_88nzhMAVSUNbBX-38" target="zqzZi_88nzhMAVSUNbBX-39" edge="1">
          <mxGeometry width="50" height="50" relative="1" as="geometry">
            <mxPoint x="420" y="1010" as="sourcePoint" />
            <mxPoint x="613" y="964" as="targetPoint" />
          </mxGeometry>
        </mxCell>
        <mxCell id="zqzZi_88nzhMAVSUNbBX-49" value="&lt;font style=&quot;font-size: 27px;&quot;&gt;Biểu đồ Use case tạo đơn đặt món&lt;/font&gt;" style="text;html=1;align=center;verticalAlign=middle;whiteSpace=wrap;rounded=0;" parent="1" vertex="1">
          <mxGeometry x="115" y="1160" width="640" height="30" as="geometry" />
        </mxCell>
        <mxCell id="zqzZi_88nzhMAVSUNbBX-50" value="Nhân viên bếp" style="shape=umlActor;verticalLabelPosition=bottom;verticalAlign=top;html=1;outlineConnect=0;" parent="1" vertex="1">
          <mxGeometry x="115" y="1427.5" width="30" height="60" as="geometry" />
        </mxCell>
        <mxCell id="zqzZi_88nzhMAVSUNbBX-51" value="Đăng nhập" style="ellipse;whiteSpace=wrap;html=1;" parent="1" vertex="1">
          <mxGeometry x="180" y="1430" width="105" height="55" as="geometry" />
        </mxCell>
        <mxCell id="zqzZi_88nzhMAVSUNbBX-52" value="Đăng nhập" style="ellipse;whiteSpace=wrap;html=1;" parent="1" vertex="1">
          <mxGeometry x="323.5" y="982.5" width="79" height="45" as="geometry" />
        </mxCell>
        <mxCell id="zqzZi_88nzhMAVSUNbBX-55" value="" style="endArrow=classic;html=1;rounded=0;entryX=0;entryY=0.5;entryDx=0;entryDy=0;" parent="1" source="zqzZi_88nzhMAVSUNbBX-35" target="zqzZi_88nzhMAVSUNbBX-52" edge="1">
          <mxGeometry width="50" height="50" relative="1" as="geometry">
            <mxPoint x="240" y="1095" as="sourcePoint" />
            <mxPoint x="290" y="1045" as="targetPoint" />
          </mxGeometry>
        </mxCell>
        <mxCell id="zqzZi_88nzhMAVSUNbBX-58" value="Include" style="endArrow=open;endSize=12;dashed=1;html=1;rounded=0;exitX=0;exitY=0.5;exitDx=0;exitDy=0;entryX=1;entryY=0.5;entryDx=0;entryDy=0;" parent="1" source="zqzZi_88nzhMAVSUNbBX-38" target="zqzZi_88nzhMAVSUNbBX-52" edge="1">
          <mxGeometry width="160" relative="1" as="geometry">
            <mxPoint x="433.3800000000001" y="1102.96" as="sourcePoint" />
            <mxPoint x="317.5" y="1090" as="targetPoint" />
          </mxGeometry>
        </mxCell>
        <mxCell id="zqzZi_88nzhMAVSUNbBX-61" value="" style="endArrow=classic;html=1;rounded=0;entryX=0;entryY=0.5;entryDx=0;entryDy=0;" parent="1" source="zqzZi_88nzhMAVSUNbBX-50" target="zqzZi_88nzhMAVSUNbBX-51" edge="1">
          <mxGeometry width="50" height="50" relative="1" as="geometry">
            <mxPoint x="135" y="1457.5" as="sourcePoint" />
            <mxPoint x="195" y="1397.5" as="targetPoint" />
          </mxGeometry>
        </mxCell>
        <mxCell id="zqzZi_88nzhMAVSUNbBX-64" value="Xem danh sách đơn đặt món" style="ellipse;whiteSpace=wrap;html=1;" parent="1" vertex="1">
          <mxGeometry x="360" y="1430" width="120" height="50" as="geometry" />
        </mxCell>
        <mxCell id="zqzZi_88nzhMAVSUNbBX-65" value="Cập nhật trạng thái đơn đặt món" style="ellipse;whiteSpace=wrap;html=1;" parent="1" vertex="1">
          <mxGeometry x="508.5" y="1425" width="185" height="60" as="geometry" />
        </mxCell>
        <mxCell id="zqzZi_88nzhMAVSUNbBX-71" value="Include" style="endArrow=open;endSize=12;dashed=1;html=1;rounded=0;exitX=0;exitY=0.5;exitDx=0;exitDy=0;" parent="1" source="zqzZi_88nzhMAVSUNbBX-64" edge="1">
          <mxGeometry width="160" relative="1" as="geometry">
            <mxPoint x="305" y="1387.5" as="sourcePoint" />
            <mxPoint x="287" y="1455" as="targetPoint" />
          </mxGeometry>
        </mxCell>
        <mxCell id="zqzZi_88nzhMAVSUNbBX-74" value="" style="endArrow=classic;html=1;rounded=0;exitX=1;exitY=0.5;exitDx=0;exitDy=0;entryX=0;entryY=0.5;entryDx=0;entryDy=0;" parent="1" source="zqzZi_88nzhMAVSUNbBX-64" target="zqzZi_88nzhMAVSUNbBX-65" edge="1">
          <mxGeometry width="50" height="50" relative="1" as="geometry">
            <mxPoint x="435" y="1617.5" as="sourcePoint" />
            <mxPoint x="485" y="1567.5" as="targetPoint" />
          </mxGeometry>
        </mxCell>
        <mxCell id="zqzZi_88nzhMAVSUNbBX-82" value="Thu ngân" style="shape=umlActor;verticalLabelPosition=bottom;verticalAlign=top;html=1;outlineConnect=0;" parent="1" vertex="1">
          <mxGeometry x="115" y="1850" width="30" height="60" as="geometry" />
        </mxCell>
        <mxCell id="zqzZi_88nzhMAVSUNbBX-83" value="Đăng nhập" style="ellipse;whiteSpace=wrap;html=1;" parent="1" vertex="1">
          <mxGeometry x="185" y="1850" width="120" height="60" as="geometry" />
        </mxCell>
        <mxCell id="zqzZi_88nzhMAVSUNbBX-84" value="" style="endArrow=classic;html=1;rounded=0;entryX=0;entryY=0.5;entryDx=0;entryDy=0;exitX=0.5;exitY=0.5;exitDx=0;exitDy=0;exitPerimeter=0;" parent="1" source="zqzZi_88nzhMAVSUNbBX-82" target="zqzZi_88nzhMAVSUNbBX-83" edge="1">
          <mxGeometry width="50" height="50" relative="1" as="geometry">
            <mxPoint x="115" y="1860" as="sourcePoint" />
            <mxPoint x="165" y="1810" as="targetPoint" />
          </mxGeometry>
        </mxCell>
        <mxCell id="zqzZi_88nzhMAVSUNbBX-86" value="Xem chi tiết hóa đơn" style="ellipse;whiteSpace=wrap;html=1;" parent="1" vertex="1">
          <mxGeometry x="372.5" y="1845" width="130" height="70" as="geometry" />
        </mxCell>
        <mxCell id="zqzZi_88nzhMAVSUNbBX-87" value="Include" style="endArrow=open;endSize=12;dashed=1;html=1;rounded=0;exitX=0;exitY=0.5;exitDx=0;exitDy=0;" parent="1" source="zqzZi_88nzhMAVSUNbBX-86" target="zqzZi_88nzhMAVSUNbBX-83" edge="1">
          <mxGeometry width="160" relative="1" as="geometry">
            <mxPoint x="425" y="1900" as="sourcePoint" />
            <mxPoint x="360" y="1999" as="targetPoint" />
          </mxGeometry>
        </mxCell>
        <mxCell id="zqzZi_88nzhMAVSUNbBX-90" value="&lt;font style=&quot;font-size: 27px;&quot;&gt;Biểu đồ Use case xác nhận thanh toán&lt;/font&gt;" style="text;html=1;align=center;verticalAlign=middle;whiteSpace=wrap;rounded=0;" parent="1" vertex="1">
          <mxGeometry x="55" y="2000" width="640" height="30" as="geometry" />
        </mxCell>
        <mxCell id="zqzZi_88nzhMAVSUNbBX-91" value="Quan ly" style="shape=umlActor;verticalLabelPosition=bottom;verticalAlign=top;html=1;outlineConnect=0;" parent="1" vertex="1">
          <mxGeometry x="1500" y="250" width="30" height="60" as="geometry" />
        </mxCell>
        <mxCell id="zqzZi_88nzhMAVSUNbBX-92" value="Đăng nhập" style="ellipse;whiteSpace=wrap;html=1;" parent="1" vertex="1">
          <mxGeometry x="1620" y="255" width="120" height="50" as="geometry" />
        </mxCell>
        <mxCell id="zqzZi_88nzhMAVSUNbBX-93" value="" style="endArrow=classic;html=1;rounded=0;entryX=0;entryY=0.5;entryDx=0;entryDy=0;" parent="1" source="zqzZi_88nzhMAVSUNbBX-91" target="zqzZi_88nzhMAVSUNbBX-92" edge="1">
          <mxGeometry width="50" height="50" relative="1" as="geometry">
            <mxPoint x="1500" y="430" as="sourcePoint" />
            <mxPoint x="1550" y="380" as="targetPoint" />
          </mxGeometry>
        </mxCell>
        <mxCell id="zqzZi_88nzhMAVSUNbBX-94" value="Tạo tài khoản" style="ellipse;whiteSpace=wrap;html=1;" parent="1" vertex="1">
          <mxGeometry x="2030" y="167.5" width="140" height="60" as="geometry" />
        </mxCell>
        <mxCell id="zqzZi_88nzhMAVSUNbBX-95" value="Chỉnh sửa tài khoản" style="ellipse;whiteSpace=wrap;html=1;" parent="1" vertex="1">
          <mxGeometry x="2040" y="257.5" width="140" height="60" as="geometry" />
        </mxCell>
        <mxCell id="zqzZi_88nzhMAVSUNbBX-96" value="Xóa tài khoản" style="ellipse;whiteSpace=wrap;html=1;" parent="1" vertex="1">
          <mxGeometry x="2050" y="337.5" width="120" height="60" as="geometry" />
        </mxCell>
        <mxCell id="zqzZi_88nzhMAVSUNbBX-97" value="Include" style="endArrow=open;endSize=12;dashed=1;html=1;rounded=0;entryX=1;entryY=0.5;entryDx=0;entryDy=0;exitX=0;exitY=0.5;exitDx=0;exitDy=0;" parent="1" source="zqzZi_88nzhMAVSUNbBX-144" target="zqzZi_88nzhMAVSUNbBX-92" edge="1">
          <mxGeometry width="160" relative="1" as="geometry">
            <mxPoint x="1800" y="260" as="sourcePoint" />
            <mxPoint x="2050" y="190" as="targetPoint" />
            <Array as="points" />
          </mxGeometry>
        </mxCell>
        <mxCell id="zqzZi_88nzhMAVSUNbBX-100" value="Quan ly" style="shape=umlActor;verticalLabelPosition=bottom;verticalAlign=top;html=1;outlineConnect=0;" parent="1" vertex="1">
          <mxGeometry x="1480" y="640" width="30" height="60" as="geometry" />
        </mxCell>
        <mxCell id="zqzZi_88nzhMAVSUNbBX-101" value="Đăng nhập" style="ellipse;whiteSpace=wrap;html=1;" parent="1" vertex="1">
          <mxGeometry x="1580" y="650" width="120" height="50" as="geometry" />
        </mxCell>
        <mxCell id="zqzZi_88nzhMAVSUNbBX-102" value="" style="endArrow=classic;html=1;rounded=0;entryX=0;entryY=0.5;entryDx=0;entryDy=0;" parent="1" source="zqzZi_88nzhMAVSUNbBX-100" target="zqzZi_88nzhMAVSUNbBX-101" edge="1">
          <mxGeometry width="50" height="50" relative="1" as="geometry">
            <mxPoint x="1480" y="820" as="sourcePoint" />
            <mxPoint x="1530" y="770" as="targetPoint" />
          </mxGeometry>
        </mxCell>
        <mxCell id="zqzZi_88nzhMAVSUNbBX-103" value="Tạo bàn" style="ellipse;whiteSpace=wrap;html=1;" parent="1" vertex="1">
          <mxGeometry x="2020" y="590" width="140" height="50" as="geometry" />
        </mxCell>
        <mxCell id="zqzZi_88nzhMAVSUNbBX-104" value="Chỉnh sửa bàn" style="ellipse;whiteSpace=wrap;html=1;" parent="1" vertex="1">
          <mxGeometry x="2020" y="650" width="140" height="55" as="geometry" />
        </mxCell>
        <mxCell id="zqzZi_88nzhMAVSUNbBX-105" value="Xóa bàn" style="ellipse;whiteSpace=wrap;html=1;" parent="1" vertex="1">
          <mxGeometry x="2030" y="720" width="120" height="50" as="geometry" />
        </mxCell>
        <mxCell id="zqzZi_88nzhMAVSUNbBX-108" value="Include" style="endArrow=open;endSize=12;dashed=1;html=1;rounded=0;entryX=1;entryY=0.5;entryDx=0;entryDy=0;exitX=0;exitY=0.5;exitDx=0;exitDy=0;" parent="1" source="zqzZi_88nzhMAVSUNbBX-149" target="zqzZi_88nzhMAVSUNbBX-101" edge="1">
          <mxGeometry width="160" relative="1" as="geometry">
            <mxPoint x="1750" y="640" as="sourcePoint" />
            <mxPoint x="1840" y="720" as="targetPoint" />
          </mxGeometry>
        </mxCell>
        <mxCell id="zqzZi_88nzhMAVSUNbBX-109" value="&lt;font style=&quot;font-size: 27px;&quot;&gt;Biểu đồ Use case Quản lý tài khoản&lt;/font&gt;" style="text;html=1;align=center;verticalAlign=middle;whiteSpace=wrap;rounded=0;" parent="1" vertex="1">
          <mxGeometry x="1470" y="430" width="640" height="30" as="geometry" />
        </mxCell>
        <mxCell id="zqzZi_88nzhMAVSUNbBX-110" value="&lt;font style=&quot;font-size: 27px;&quot;&gt;Biểu đồ Use case Quản lý bàn&lt;/font&gt;" style="text;html=1;align=center;verticalAlign=middle;whiteSpace=wrap;rounded=0;" parent="1" vertex="1">
          <mxGeometry x="1430" y="810" width="640" height="30" as="geometry" />
        </mxCell>
        <mxCell id="zqzZi_88nzhMAVSUNbBX-111" value="Quan ly" style="shape=umlActor;verticalLabelPosition=bottom;verticalAlign=top;html=1;outlineConnect=0;" parent="1" vertex="1">
          <mxGeometry x="1330" y="1030" width="30" height="60" as="geometry" />
        </mxCell>
        <mxCell id="zqzZi_88nzhMAVSUNbBX-112" value="Đăng nhập" style="ellipse;whiteSpace=wrap;html=1;" parent="1" vertex="1">
          <mxGeometry x="1430" y="1035" width="120" height="50" as="geometry" />
        </mxCell>
        <mxCell id="zqzZi_88nzhMAVSUNbBX-113" value="" style="endArrow=classic;html=1;rounded=0;entryX=0;entryY=0.5;entryDx=0;entryDy=0;" parent="1" source="zqzZi_88nzhMAVSUNbBX-111" target="zqzZi_88nzhMAVSUNbBX-112" edge="1">
          <mxGeometry width="50" height="50" relative="1" as="geometry">
            <mxPoint x="1470" y="1210" as="sourcePoint" />
            <mxPoint x="1520" y="1160" as="targetPoint" />
          </mxGeometry>
        </mxCell>
        <mxCell id="zqzZi_88nzhMAVSUNbBX-114" value="Tạo mặt hàng" style="ellipse;whiteSpace=wrap;html=1;" parent="1" vertex="1">
          <mxGeometry x="1820" y="950" width="140" height="60" as="geometry" />
        </mxCell>
        <mxCell id="zqzZi_88nzhMAVSUNbBX-115" value="Chỉnh sửa mặt hàng" style="ellipse;whiteSpace=wrap;html=1;" parent="1" vertex="1">
          <mxGeometry x="1830" y="1040" width="140" height="60" as="geometry" />
        </mxCell>
        <mxCell id="zqzZi_88nzhMAVSUNbBX-116" value="Xóa mặt hàng" style="ellipse;whiteSpace=wrap;html=1;" parent="1" vertex="1">
          <mxGeometry x="1830" y="1110" width="120" height="60" as="geometry" />
        </mxCell>
        <mxCell id="zqzZi_88nzhMAVSUNbBX-117" value="Include" style="endArrow=open;endSize=12;dashed=1;html=1;rounded=0;entryX=1.018;entryY=0.384;entryDx=0;entryDy=0;entryPerimeter=0;exitX=0;exitY=0.5;exitDx=0;exitDy=0;" parent="1" source="zqzZi_88nzhMAVSUNbBX-153" target="zqzZi_88nzhMAVSUNbBX-112" edge="1">
          <mxGeometry width="160" relative="1" as="geometry">
            <mxPoint x="1610" y="1030" as="sourcePoint" />
            <mxPoint x="1650" y="940" as="targetPoint" />
          </mxGeometry>
        </mxCell>
        <mxCell id="zqzZi_88nzhMAVSUNbBX-120" value="&lt;font style=&quot;font-size: 27px;&quot;&gt;Biểu đồ Use case Quản lý mặt hàng&lt;/font&gt;" style="text;html=1;align=center;verticalAlign=middle;whiteSpace=wrap;rounded=0;" parent="1" vertex="1">
          <mxGeometry x="1420" y="1200" width="640" height="30" as="geometry" />
        </mxCell>
        <mxCell id="zqzZi_88nzhMAVSUNbBX-121" value="Quan ly" style="shape=umlActor;verticalLabelPosition=bottom;verticalAlign=top;html=1;outlineConnect=0;" parent="1" vertex="1">
          <mxGeometry x="1480" y="1390" width="30" height="60" as="geometry" />
        </mxCell>
        <mxCell id="zqzZi_88nzhMAVSUNbBX-124" value="Tạo nhóm mặt hàng" style="ellipse;whiteSpace=wrap;html=1;" parent="1" vertex="1">
          <mxGeometry x="1720" y="1290" width="140" height="60" as="geometry" />
        </mxCell>
        <mxCell id="zqzZi_88nzhMAVSUNbBX-125" value="Chỉnh sửa nhóm mặt hàng" style="ellipse;whiteSpace=wrap;html=1;" parent="1" vertex="1">
          <mxGeometry x="1710" y="1370" width="140" height="60" as="geometry" />
        </mxCell>
        <mxCell id="zqzZi_88nzhMAVSUNbBX-126" value="Xóa nhóm mặt hàng" style="ellipse;whiteSpace=wrap;html=1;" parent="1" vertex="1">
          <mxGeometry x="1720" y="1457.5" width="120" height="60" as="geometry" />
        </mxCell>
        <mxCell id="zqzZi_88nzhMAVSUNbBX-130" value="&lt;font style=&quot;font-size: 27px;&quot;&gt;Biểu đồ Use case Quản lý nhóm mặt hàng&lt;/font&gt;" style="text;html=1;align=center;verticalAlign=middle;whiteSpace=wrap;rounded=0;" parent="1" vertex="1">
          <mxGeometry x="1360" y="1540" width="640" height="30" as="geometry" />
        </mxCell>
        <mxCell id="zqzZi_88nzhMAVSUNbBX-133" value="" style="endArrow=classic;html=1;rounded=0;exitX=1;exitY=0.3333333333333333;exitDx=0;exitDy=0;exitPerimeter=0;entryX=0.007;entryY=0.796;entryDx=0;entryDy=0;entryPerimeter=0;" parent="1" source="zqzZi_88nzhMAVSUNbBX-121" target="zqzZi_88nzhMAVSUNbBX-124" edge="1">
          <mxGeometry width="50" height="50" relative="1" as="geometry">
            <mxPoint x="1683.1014982375682" y="1402.6081673778235" as="sourcePoint" />
            <mxPoint x="1820" y="1320" as="targetPoint" />
          </mxGeometry>
        </mxCell>
        <mxCell id="zqzZi_88nzhMAVSUNbBX-134" value="" style="endArrow=classic;html=1;rounded=0;entryX=0;entryY=0.5;entryDx=0;entryDy=0;" parent="1" source="zqzZi_88nzhMAVSUNbBX-121" target="zqzZi_88nzhMAVSUNbBX-125" edge="1">
          <mxGeometry width="50" height="50" relative="1" as="geometry">
            <mxPoint x="1683.1014982375682" y="1437.391832622176" as="sourcePoint" />
            <mxPoint x="1700" y="1454.9999999999995" as="targetPoint" />
            <Array as="points" />
          </mxGeometry>
        </mxCell>
        <mxCell id="zqzZi_88nzhMAVSUNbBX-135" value="Quản lý nhóm mặt hàng" style="ellipse;whiteSpace=wrap;html=1;" parent="1" vertex="1">
          <mxGeometry x="2055" y="990" width="155" height="60" as="geometry" />
        </mxCell>
        <mxCell id="zqzZi_88nzhMAVSUNbBX-136" value="Extend" style="endArrow=open;endSize=12;dashed=1;html=1;rounded=0;entryX=1.014;entryY=0.638;entryDx=0;entryDy=0;entryPerimeter=0;" parent="1" target="zqzZi_88nzhMAVSUNbBX-114" edge="1">
          <mxGeometry width="160" relative="1" as="geometry">
            <mxPoint x="2050" y="1020" as="sourcePoint" />
            <mxPoint x="2030" y="1050" as="targetPoint" />
          </mxGeometry>
        </mxCell>
        <mxCell id="zqzZi_88nzhMAVSUNbBX-137" value="Extend" style="endArrow=open;endSize=12;dashed=1;html=1;rounded=0;exitX=0.027;exitY=0.686;exitDx=0;exitDy=0;exitPerimeter=0;" parent="1" source="zqzZi_88nzhMAVSUNbBX-135" edge="1">
          <mxGeometry width="160" relative="1" as="geometry">
            <mxPoint x="2060" y="1090" as="sourcePoint" />
            <mxPoint x="1970" y="1058" as="targetPoint" />
          </mxGeometry>
        </mxCell>
        <mxCell id="zqzZi_88nzhMAVSUNbBX-144" value="Quản lý tài khoản" style="ellipse;whiteSpace=wrap;html=1;" parent="1" vertex="1">
          <mxGeometry x="1820" y="255" width="150" height="55" as="geometry" />
        </mxCell>
        <mxCell id="zqzZi_88nzhMAVSUNbBX-146" value="" style="endArrow=classic;html=1;rounded=0;entryX=0;entryY=0.5;entryDx=0;entryDy=0;exitX=0.983;exitY=0.289;exitDx=0;exitDy=0;exitPerimeter=0;" parent="1" source="zqzZi_88nzhMAVSUNbBX-144" target="zqzZi_88nzhMAVSUNbBX-94" edge="1">
          <mxGeometry width="50" height="50" relative="1" as="geometry">
            <mxPoint x="1950" y="240" as="sourcePoint" />
            <mxPoint x="2000" y="190" as="targetPoint" />
          </mxGeometry>
        </mxCell>
        <mxCell id="zqzZi_88nzhMAVSUNbBX-147" value="" style="endArrow=classic;html=1;rounded=0;exitX=1;exitY=0.5;exitDx=0;exitDy=0;entryX=-0.009;entryY=0.378;entryDx=0;entryDy=0;entryPerimeter=0;" parent="1" source="zqzZi_88nzhMAVSUNbBX-144" target="zqzZi_88nzhMAVSUNbBX-95" edge="1">
          <mxGeometry width="50" height="50" relative="1" as="geometry">
            <mxPoint x="2000" y="330" as="sourcePoint" />
            <mxPoint x="2050" y="280" as="targetPoint" />
          </mxGeometry>
        </mxCell>
        <mxCell id="zqzZi_88nzhMAVSUNbBX-148" value="" style="endArrow=classic;html=1;rounded=0;entryX=0;entryY=0.5;entryDx=0;entryDy=0;exitX=0.977;exitY=0.81;exitDx=0;exitDy=0;exitPerimeter=0;" parent="1" source="zqzZi_88nzhMAVSUNbBX-144" target="zqzZi_88nzhMAVSUNbBX-96" edge="1">
          <mxGeometry width="50" height="50" relative="1" as="geometry">
            <mxPoint x="1940" y="380" as="sourcePoint" />
            <mxPoint x="1990" y="330" as="targetPoint" />
          </mxGeometry>
        </mxCell>
        <mxCell id="zqzZi_88nzhMAVSUNbBX-149" value="Quản lý bàn" style="ellipse;whiteSpace=wrap;html=1;" parent="1" vertex="1">
          <mxGeometry x="1800" y="650" width="120" height="50" as="geometry" />
        </mxCell>
        <mxCell id="zqzZi_88nzhMAVSUNbBX-150" value="" style="endArrow=classic;html=1;rounded=0;exitX=1;exitY=0;exitDx=0;exitDy=0;entryX=0;entryY=0.5;entryDx=0;entryDy=0;" parent="1" source="zqzZi_88nzhMAVSUNbBX-149" target="zqzZi_88nzhMAVSUNbBX-103" edge="1">
          <mxGeometry width="50" height="50" relative="1" as="geometry">
            <mxPoint x="1940" y="660" as="sourcePoint" />
            <mxPoint x="2010" y="610" as="targetPoint" />
          </mxGeometry>
        </mxCell>
        <mxCell id="zqzZi_88nzhMAVSUNbBX-151" value="" style="endArrow=classic;html=1;rounded=0;exitX=1;exitY=0.5;exitDx=0;exitDy=0;entryX=0;entryY=0.5;entryDx=0;entryDy=0;" parent="1" source="zqzZi_88nzhMAVSUNbBX-149" target="zqzZi_88nzhMAVSUNbBX-104" edge="1">
          <mxGeometry width="50" height="50" relative="1" as="geometry">
            <mxPoint x="1890" y="770" as="sourcePoint" />
            <mxPoint x="1940" y="720" as="targetPoint" />
          </mxGeometry>
        </mxCell>
        <mxCell id="zqzZi_88nzhMAVSUNbBX-152" value="" style="endArrow=classic;html=1;rounded=0;entryX=0;entryY=0.5;entryDx=0;entryDy=0;" parent="1" source="zqzZi_88nzhMAVSUNbBX-149" target="zqzZi_88nzhMAVSUNbBX-105" edge="1">
          <mxGeometry width="50" height="50" relative="1" as="geometry">
            <mxPoint x="1920" y="780" as="sourcePoint" />
            <mxPoint x="1970" y="730" as="targetPoint" />
          </mxGeometry>
        </mxCell>
        <mxCell id="zqzZi_88nzhMAVSUNbBX-153" value="Quản lý mặt hàng" style="ellipse;whiteSpace=wrap;html=1;" parent="1" vertex="1">
          <mxGeometry x="1640" y="1030" width="120" height="50" as="geometry" />
        </mxCell>
        <mxCell id="zqzZi_88nzhMAVSUNbBX-154" value="" style="endArrow=classic;html=1;rounded=0;exitX=1;exitY=0;exitDx=0;exitDy=0;entryX=0;entryY=0.5;entryDx=0;entryDy=0;" parent="1" source="zqzZi_88nzhMAVSUNbBX-153" target="zqzZi_88nzhMAVSUNbBX-114" edge="1">
          <mxGeometry width="50" height="50" relative="1" as="geometry">
            <mxPoint x="1730" y="990" as="sourcePoint" />
            <mxPoint x="1780" y="940" as="targetPoint" />
          </mxGeometry>
        </mxCell>
        <mxCell id="zqzZi_88nzhMAVSUNbBX-155" value="" style="endArrow=classic;html=1;rounded=0;exitX=1;exitY=0.5;exitDx=0;exitDy=0;entryX=0;entryY=0.5;entryDx=0;entryDy=0;" parent="1" source="zqzZi_88nzhMAVSUNbBX-153" target="zqzZi_88nzhMAVSUNbBX-115" edge="1">
          <mxGeometry width="50" height="50" relative="1" as="geometry">
            <mxPoint x="1640" y="1170" as="sourcePoint" />
            <mxPoint x="1690" y="1120" as="targetPoint" />
          </mxGeometry>
        </mxCell>
        <mxCell id="zqzZi_88nzhMAVSUNbBX-156" value="" style="endArrow=classic;html=1;rounded=0;exitX=1;exitY=1;exitDx=0;exitDy=0;entryX=0;entryY=0.5;entryDx=0;entryDy=0;" parent="1" source="zqzZi_88nzhMAVSUNbBX-153" target="zqzZi_88nzhMAVSUNbBX-116" edge="1">
          <mxGeometry width="50" height="50" relative="1" as="geometry">
            <mxPoint x="1740" y="1170" as="sourcePoint" />
            <mxPoint x="1790" y="1120" as="targetPoint" />
          </mxGeometry>
        </mxCell>
        <mxCell id="zqzZi_88nzhMAVSUNbBX-157" value="" style="endArrow=classic;html=1;rounded=0;" parent="1" source="zqzZi_88nzhMAVSUNbBX-121" target="zqzZi_88nzhMAVSUNbBX-126" edge="1">
          <mxGeometry width="50" height="50" relative="1" as="geometry">
            <mxPoint x="1600" y="1480" as="sourcePoint" />
            <mxPoint x="1650" y="1430" as="targetPoint" />
          </mxGeometry>
        </mxCell>
        <mxCell id="zqzZi_88nzhMAVSUNbBX-159" value="Quan ly" style="shape=umlActor;verticalLabelPosition=bottom;verticalAlign=top;html=1;outlineConnect=0;" parent="1" vertex="1">
          <mxGeometry x="1380" y="1770" width="30" height="60" as="geometry" />
        </mxCell>
        <mxCell id="zqzZi_88nzhMAVSUNbBX-160" value="Đăng nhập" style="ellipse;whiteSpace=wrap;html=1;" parent="1" vertex="1">
          <mxGeometry x="1480" y="1775" width="100" height="50" as="geometry" />
        </mxCell>
        <mxCell id="zqzZi_88nzhMAVSUNbBX-161" value="" style="endArrow=classic;html=1;rounded=0;entryX=0;entryY=0.5;entryDx=0;entryDy=0;" parent="1" source="zqzZi_88nzhMAVSUNbBX-159" target="zqzZi_88nzhMAVSUNbBX-160" edge="1">
          <mxGeometry width="50" height="50" relative="1" as="geometry">
            <mxPoint x="1480" y="1930" as="sourcePoint" />
            <mxPoint x="1530" y="1880" as="targetPoint" />
          </mxGeometry>
        </mxCell>
        <mxCell id="zqzZi_88nzhMAVSUNbBX-162" value="Thống kê doanh thu theo ngày" style="ellipse;whiteSpace=wrap;html=1;" parent="1" vertex="1">
          <mxGeometry x="1640" y="1680" width="180" height="55" as="geometry" />
        </mxCell>
        <mxCell id="zqzZi_88nzhMAVSUNbBX-163" value="Thống kê doanh thu theo tháng" style="ellipse;whiteSpace=wrap;html=1;" parent="1" vertex="1">
          <mxGeometry x="1640" y="1740" width="180" height="55" as="geometry" />
        </mxCell>
        <mxCell id="zqzZi_88nzhMAVSUNbBX-164" value="Thống kê doanh thu theo năm" style="ellipse;whiteSpace=wrap;html=1;" parent="1" vertex="1">
          <mxGeometry x="1650" y="1815" width="180" height="55" as="geometry" />
        </mxCell>
        <mxCell id="zqzZi_88nzhMAVSUNbBX-165" value="Thống kê món bán chạy" style="ellipse;whiteSpace=wrap;html=1;" parent="1" vertex="1">
          <mxGeometry x="1655" y="1885" width="150" height="50" as="geometry" />
        </mxCell>
        <mxCell id="zqzZi_88nzhMAVSUNbBX-166" value="Include" style="endArrow=open;endSize=12;dashed=1;html=1;rounded=0;exitX=0;exitY=0.5;exitDx=0;exitDy=0;entryX=0.967;entryY=0.181;entryDx=0;entryDy=0;entryPerimeter=0;" parent="1" source="zqzZi_88nzhMAVSUNbBX-163" target="zqzZi_88nzhMAVSUNbBX-160" edge="1">
          <mxGeometry width="160" relative="1" as="geometry">
            <mxPoint x="1520" y="1950" as="sourcePoint" />
            <mxPoint x="1568" y="1990" as="targetPoint" />
          </mxGeometry>
        </mxCell>
        <mxCell id="zqzZi_88nzhMAVSUNbBX-167" value="Include" style="endArrow=open;endSize=12;dashed=1;html=1;rounded=0;exitX=-0.006;exitY=0.613;exitDx=0;exitDy=0;entryX=0.758;entryY=0.016;entryDx=0;entryDy=0;entryPerimeter=0;exitPerimeter=0;" parent="1" source="zqzZi_88nzhMAVSUNbBX-162" target="zqzZi_88nzhMAVSUNbBX-160" edge="1">
          <mxGeometry width="160" relative="1" as="geometry">
            <mxPoint x="1593" y="1750" as="sourcePoint" />
            <mxPoint x="1530" y="1766" as="targetPoint" />
          </mxGeometry>
        </mxCell>
        <mxCell id="zqzZi_88nzhMAVSUNbBX-168" value="Include" style="endArrow=open;endSize=12;dashed=1;html=1;rounded=0;entryX=1.017;entryY=0.566;entryDx=0;entryDy=0;entryPerimeter=0;exitX=0.003;exitY=0.364;exitDx=0;exitDy=0;exitPerimeter=0;" parent="1" source="zqzZi_88nzhMAVSUNbBX-164" target="zqzZi_88nzhMAVSUNbBX-160" edge="1">
          <mxGeometry width="160" relative="1" as="geometry">
            <mxPoint x="1660" y="1788" as="sourcePoint" />
            <mxPoint x="1597" y="1804" as="targetPoint" />
          </mxGeometry>
        </mxCell>
        <mxCell id="zqzZi_88nzhMAVSUNbBX-169" value="Include" style="endArrow=open;endSize=12;dashed=1;html=1;rounded=0;entryX=0.896;entryY=0.861;entryDx=0;entryDy=0;entryPerimeter=0;exitX=0.004;exitY=0.357;exitDx=0;exitDy=0;exitPerimeter=0;" parent="1" source="zqzZi_88nzhMAVSUNbBX-165" target="zqzZi_88nzhMAVSUNbBX-160" edge="1">
          <mxGeometry width="160" relative="1" as="geometry">
            <mxPoint x="1650" y="1900" as="sourcePoint" />
            <mxPoint x="1607" y="1814" as="targetPoint" />
          </mxGeometry>
        </mxCell>
        <mxCell id="zqzZi_88nzhMAVSUNbBX-170" value="&lt;font style=&quot;font-size: 27px;&quot;&gt;Biểu đồ Use case Thống kê&lt;/font&gt;" style="text;html=1;align=center;verticalAlign=middle;whiteSpace=wrap;rounded=0;" parent="1" vertex="1">
          <mxGeometry x="1310" y="1950" width="640" height="30" as="geometry" />
        </mxCell>
        <mxCell id="zqzZi_88nzhMAVSUNbBX-171" value="Quan ly" style="shape=umlActor;verticalLabelPosition=bottom;verticalAlign=top;html=1;outlineConnect=0;" parent="1" vertex="1">
          <mxGeometry x="1330" y="2170" width="30" height="60" as="geometry" />
        </mxCell>
        <mxCell id="zqzZi_88nzhMAVSUNbBX-172" value="&lt;font style=&quot;font-size: 27px;&quot;&gt;Biểu đồ Use case Quản lý hóa đơn&lt;/font&gt;" style="text;html=1;align=center;verticalAlign=middle;whiteSpace=wrap;rounded=0;" parent="1" vertex="1">
          <mxGeometry x="1290" y="2320" width="640" height="30" as="geometry" />
        </mxCell>
        <mxCell id="zqzZi_88nzhMAVSUNbBX-173" value="Tìm kiếm mặt hàng" style="ellipse;whiteSpace=wrap;html=1;" parent="1" vertex="1">
          <mxGeometry x="1740" y="900" width="120" height="40" as="geometry" />
        </mxCell>
        <mxCell id="zqzZi_88nzhMAVSUNbBX-174" value="" style="endArrow=classic;html=1;rounded=0;entryX=0.189;entryY=0.86;entryDx=0;entryDy=0;entryPerimeter=0;" parent="1" target="zqzZi_88nzhMAVSUNbBX-173" edge="1">
          <mxGeometry width="50" height="50" relative="1" as="geometry">
            <mxPoint x="1730" y="1030" as="sourcePoint" />
            <mxPoint x="1805" y="963" as="targetPoint" />
          </mxGeometry>
        </mxCell>
        <mxCell id="zqzZi_88nzhMAVSUNbBX-175" value="Tìm kiếm bàn" style="ellipse;whiteSpace=wrap;html=1;" parent="1" vertex="1">
          <mxGeometry x="2020" y="520" width="140" height="50" as="geometry" />
        </mxCell>
        <mxCell id="zqzZi_88nzhMAVSUNbBX-177" value="" style="endArrow=classic;html=1;rounded=0;exitX=0.76;exitY=-0.028;exitDx=0;exitDy=0;entryX=0.081;entryY=0.807;entryDx=0;entryDy=0;entryPerimeter=0;exitPerimeter=0;" parent="1" source="zqzZi_88nzhMAVSUNbBX-149" target="zqzZi_88nzhMAVSUNbBX-175" edge="1">
          <mxGeometry width="50" height="50" relative="1" as="geometry">
            <mxPoint x="1863" y="636" as="sourcePoint" />
            <mxPoint x="1980" y="594" as="targetPoint" />
          </mxGeometry>
        </mxCell>
        <mxCell id="9fumEpHeDndvgt4UoZ8p-2" value="Đăng nhập" style="ellipse;whiteSpace=wrap;html=1;" parent="1" vertex="1">
          <mxGeometry x="1410" y="2175" width="85" height="50" as="geometry" />
        </mxCell>
        <mxCell id="9fumEpHeDndvgt4UoZ8p-3" value="" style="endArrow=classic;html=1;rounded=0;" parent="1" source="zqzZi_88nzhMAVSUNbBX-171" target="9fumEpHeDndvgt4UoZ8p-2" edge="1">
          <mxGeometry width="50" height="50" relative="1" as="geometry">
            <mxPoint x="1410" y="2250" as="sourcePoint" />
            <mxPoint x="1460" y="2200" as="targetPoint" />
          </mxGeometry>
        </mxCell>
        <mxCell id="9fumEpHeDndvgt4UoZ8p-4" value="Quản lý hóa đơn" style="ellipse;whiteSpace=wrap;html=1;" parent="1" vertex="1">
          <mxGeometry x="1580" y="2175" width="120" height="50" as="geometry" />
        </mxCell>
        <mxCell id="9fumEpHeDndvgt4UoZ8p-5" value="Include" style="endArrow=open;endSize=12;dashed=1;html=1;rounded=0;exitX=0;exitY=0.5;exitDx=0;exitDy=0;entryX=1;entryY=0.5;entryDx=0;entryDy=0;" parent="1" source="9fumEpHeDndvgt4UoZ8p-4" target="9fumEpHeDndvgt4UoZ8p-2" edge="1">
          <mxGeometry width="160" relative="1" as="geometry">
            <mxPoint x="1620" y="2260" as="sourcePoint" />
            <mxPoint x="1537" y="2322" as="targetPoint" />
          </mxGeometry>
        </mxCell>
        <mxCell id="9fumEpHeDndvgt4UoZ8p-6" value="Tạo hóa đơn" style="ellipse;whiteSpace=wrap;html=1;" parent="1" vertex="1">
          <mxGeometry x="1750" y="2090" width="120" height="50" as="geometry" />
        </mxCell>
        <mxCell id="9fumEpHeDndvgt4UoZ8p-7" value="Chỉnh sửa hóa đơn" style="ellipse;whiteSpace=wrap;html=1;" parent="1" vertex="1">
          <mxGeometry x="1760" y="2160" width="120" height="50" as="geometry" />
        </mxCell>
        <mxCell id="9fumEpHeDndvgt4UoZ8p-8" value="Xóa hóa đơn" style="ellipse;whiteSpace=wrap;html=1;" parent="1" vertex="1">
          <mxGeometry x="1760" y="2240" width="120" height="50" as="geometry" />
        </mxCell>
        <mxCell id="9fumEpHeDndvgt4UoZ8p-9" value="" style="endArrow=classic;html=1;rounded=0;exitX=0.767;exitY=0.063;exitDx=0;exitDy=0;exitPerimeter=0;" parent="1" source="9fumEpHeDndvgt4UoZ8p-4" target="9fumEpHeDndvgt4UoZ8p-6" edge="1">
          <mxGeometry width="50" height="50" relative="1" as="geometry">
            <mxPoint x="1630" y="2150" as="sourcePoint" />
            <mxPoint x="1680" y="2100" as="targetPoint" />
          </mxGeometry>
        </mxCell>
        <mxCell id="9fumEpHeDndvgt4UoZ8p-10" value="" style="endArrow=classic;html=1;rounded=0;exitX=1;exitY=0.5;exitDx=0;exitDy=0;entryX=0.011;entryY=0.683;entryDx=0;entryDy=0;entryPerimeter=0;" parent="1" source="9fumEpHeDndvgt4UoZ8p-4" target="9fumEpHeDndvgt4UoZ8p-7" edge="1">
          <mxGeometry width="50" height="50" relative="1" as="geometry">
            <mxPoint x="1700" y="2310" as="sourcePoint" />
            <mxPoint x="1750" y="2260" as="targetPoint" />
          </mxGeometry>
        </mxCell>
        <mxCell id="9fumEpHeDndvgt4UoZ8p-11" value="" style="endArrow=classic;html=1;rounded=0;entryX=-0.039;entryY=0.443;entryDx=0;entryDy=0;entryPerimeter=0;exitX=0.917;exitY=0.9;exitDx=0;exitDy=0;exitPerimeter=0;" parent="1" source="9fumEpHeDndvgt4UoZ8p-4" target="9fumEpHeDndvgt4UoZ8p-8" edge="1">
          <mxGeometry width="50" height="50" relative="1" as="geometry">
            <mxPoint x="1690" y="2300" as="sourcePoint" />
            <mxPoint x="1740" y="2250" as="targetPoint" />
          </mxGeometry>
        </mxCell>
        <mxCell id="9fumEpHeDndvgt4UoZ8p-12" value="&lt;font style=&quot;font-size: 27px;&quot;&gt;Biểu đồ Use case xem, cập nhật trạng thái đơn đặt món&lt;/font&gt;" style="text;html=1;align=center;verticalAlign=middle;whiteSpace=wrap;rounded=0;" parent="1" vertex="1">
          <mxGeometry x="30" y="1570" width="690" height="70" as="geometry" />
        </mxCell>
        <mxCell id="9fumEpHeDndvgt4UoZ8p-18" value="Xóa đơn đặt món" style="ellipse;whiteSpace=wrap;html=1;" parent="1" vertex="1">
          <mxGeometry x="615" y="1020" width="140" height="60" as="geometry" />
        </mxCell>
        <mxCell id="9fumEpHeDndvgt4UoZ8p-19" value="" style="endArrow=classic;html=1;rounded=0;exitX=0.758;exitY=0.996;exitDx=0;exitDy=0;exitPerimeter=0;entryX=0;entryY=0.5;entryDx=0;entryDy=0;" parent="1" source="zqzZi_88nzhMAVSUNbBX-38" target="9fumEpHeDndvgt4UoZ8p-18" edge="1">
          <mxGeometry width="50" height="50" relative="1" as="geometry">
            <mxPoint x="665" y="1140" as="sourcePoint" />
            <mxPoint x="715" y="1090" as="targetPoint" />
          </mxGeometry>
        </mxCell>
        <mxCell id="9fumEpHeDndvgt4UoZ8p-20" value="Extend" style="endArrow=open;endSize=12;dashed=1;html=1;rounded=0;exitX=0.851;exitY=0.951;exitDx=0;exitDy=0;entryX=0.5;entryY=0;entryDx=0;entryDy=0;exitPerimeter=0;" parent="1" source="zqzZi_88nzhMAVSUNbBX-39" target="9fumEpHeDndvgt4UoZ8p-18" edge="1">
          <mxGeometry width="160" relative="1" as="geometry">
            <mxPoint x="679" y="936.5" as="sourcePoint" />
            <mxPoint x="781" y="943.5" as="targetPoint" />
          </mxGeometry>
        </mxCell>
        <mxCell id="9fumEpHeDndvgt4UoZ8p-21" value="Xác nhận thanh toán" style="ellipse;whiteSpace=wrap;html=1;" parent="1" vertex="1">
          <mxGeometry x="528.5" y="1850" width="120" height="65" as="geometry" />
        </mxCell>
        <mxCell id="9fumEpHeDndvgt4UoZ8p-22" value="" style="endArrow=classic;html=1;rounded=0;exitX=0.991;exitY=0.606;exitDx=0;exitDy=0;exitPerimeter=0;entryX=0;entryY=0.5;entryDx=0;entryDy=0;" parent="1" source="zqzZi_88nzhMAVSUNbBX-86" target="9fumEpHeDndvgt4UoZ8p-21" edge="1">
          <mxGeometry width="50" height="50" relative="1" as="geometry">
            <mxPoint x="542.5" y="1920" as="sourcePoint" />
            <mxPoint x="592.5" y="1870" as="targetPoint" />
          </mxGeometry>
        </mxCell>
        <mxCell id="9fumEpHeDndvgt4UoZ8p-23" value="Tạo đơn đặt món" style="ellipse;whiteSpace=wrap;html=1;" parent="1" vertex="1">
          <mxGeometry x="720" y="890" width="130" height="60" as="geometry" />
        </mxCell>
        <mxCell id="9fumEpHeDndvgt4UoZ8p-24" value="" style="endArrow=classic;html=1;rounded=0;entryX=0;entryY=0.5;entryDx=0;entryDy=0;" parent="1" source="zqzZi_88nzhMAVSUNbBX-39" target="9fumEpHeDndvgt4UoZ8p-23" edge="1">
          <mxGeometry width="50" height="50" relative="1" as="geometry">
            <mxPoint x="685" y="920" as="sourcePoint" />
            <mxPoint x="745" y="890" as="targetPoint" />
          </mxGeometry>
        </mxCell>
        <mxCell id="njeg15UzmNYmxOpEJ-YY-1" value="Xem chi tiết hóa đơn" style="ellipse;whiteSpace=wrap;html=1;" parent="1" vertex="1">
          <mxGeometry x="790" y="160" width="120" height="60" as="geometry" />
        </mxCell>
        <mxCell id="njeg15UzmNYmxOpEJ-YY-3" value="" style="endArrow=classic;html=1;rounded=0;entryX=0.967;entryY=0.787;entryDx=0;entryDy=0;entryPerimeter=0;" parent="1" source="zqzZi_88nzhMAVSUNbBX-19" target="njeg15UzmNYmxOpEJ-YY-1" edge="1">
          <mxGeometry width="50" height="50" relative="1" as="geometry">
            <mxPoint x="650" y="450" as="sourcePoint" />
            <mxPoint x="560" y="420" as="targetPoint" />
            <Array as="points" />
          </mxGeometry>
        </mxCell>
        <mxCell id="J-OzGpA1K6yi93D9_zaK-1" value="" style="endArrow=classic;html=1;rounded=0;entryX=1;entryY=0.5;entryDx=0;entryDy=0;" parent="1" source="zqzZi_88nzhMAVSUNbBX-15" target="njeg15UzmNYmxOpEJ-YY-1" edge="1">
          <mxGeometry width="50" height="50" relative="1" as="geometry">
            <mxPoint x="830" y="340" as="sourcePoint" />
            <mxPoint x="880" y="290" as="targetPoint" />
          </mxGeometry>
        </mxCell>
        <mxCell id="J-OzGpA1K6yi93D9_zaK-2" value="Tìm kiếm tài khoản" style="ellipse;whiteSpace=wrap;html=1;" parent="1" vertex="1">
          <mxGeometry x="1960" y="90" width="140" height="50" as="geometry" />
        </mxCell>
        <mxCell id="J-OzGpA1K6yi93D9_zaK-3" value="" style="endArrow=classic;html=1;rounded=0;entryX=0.086;entryY=0.795;entryDx=0;entryDy=0;entryPerimeter=0;exitX=0.96;exitY=0.232;exitDx=0;exitDy=0;exitPerimeter=0;" parent="1" source="zqzZi_88nzhMAVSUNbBX-144" target="J-OzGpA1K6yi93D9_zaK-2" edge="1">
          <mxGeometry width="50" height="50" relative="1" as="geometry">
            <mxPoint x="1910" y="250" as="sourcePoint" />
            <mxPoint x="1880" y="100" as="targetPoint" />
          </mxGeometry>
        </mxCell>
        <mxCell id="LtJSbJIjSq1q164-DwSc-1" value="Người dùng" style="shape=umlActor;verticalLabelPosition=bottom;verticalAlign=top;html=1;outlineConnect=0;" parent="1" vertex="1">
          <mxGeometry x="710" y="-140" width="30" height="60" as="geometry" />
        </mxCell>
        <mxCell id="LtJSbJIjSq1q164-DwSc-4" value="" style="endArrow=classic;html=1;rounded=0;exitX=0;exitY=0.3333333333333333;exitDx=0;exitDy=0;exitPerimeter=0;entryX=0.55;entryY=1;entryDx=0;entryDy=0;entryPerimeter=0;" parent="1" source="LtJSbJIjSq1q164-DwSc-1" target="LtJSbJIjSq1q164-DwSc-5" edge="1">
          <mxGeometry width="50" height="50" relative="1" as="geometry">
            <mxPoint x="765" y="-110" as="sourcePoint" />
            <mxPoint x="815" y="-120" as="targetPoint" />
          </mxGeometry>
        </mxCell>
        <mxCell id="LtJSbJIjSq1q164-DwSc-5" value="Đăng nhập" style="ellipse;whiteSpace=wrap;html=1;" parent="1" vertex="1">
          <mxGeometry x="615" y="-200" width="100" height="40" as="geometry" />
        </mxCell>
        <mxCell id="LtJSbJIjSq1q164-DwSc-7" value="" style="endArrow=classic;html=1;rounded=0;entryX=0.264;entryY=0.998;entryDx=0;entryDy=0;entryPerimeter=0;" parent="1" source="LtJSbJIjSq1q164-DwSc-1" target="LtJSbJIjSq1q164-DwSc-8" edge="1">
          <mxGeometry width="50" height="50" relative="1" as="geometry">
            <mxPoint x="752.5" y="80" as="sourcePoint" />
            <mxPoint x="802.5" y="70" as="targetPoint" />
          </mxGeometry>
        </mxCell>
        <mxCell id="LtJSbJIjSq1q164-DwSc-8" value="Đổi mật khẩu" style="ellipse;whiteSpace=wrap;html=1;" parent="1" vertex="1">
          <mxGeometry x="755" y="-200" width="100" height="40" as="geometry" />
        </mxCell>
        <mxCell id="-kCtTFRmVq8t6nt-etvU-1" value="" style="triangle;whiteSpace=wrap;html=1;" parent="1" vertex="1">
          <mxGeometry x="711.5" y="-110" width="8.5" height="20" as="geometry" />
        </mxCell>
        <mxCell id="-kCtTFRmVq8t6nt-etvU-2" value="" style="endArrow=none;html=1;rounded=0;exitX=0.5;exitY=0;exitDx=0;exitDy=0;exitPerimeter=0;entryX=0;entryY=0.5;entryDx=0;entryDy=0;" parent="1" source="zqzZi_88nzhMAVSUNbBX-1" target="-kCtTFRmVq8t6nt-etvU-1" edge="1">
          <mxGeometry width="50" height="50" relative="1" as="geometry">
            <mxPoint x="340" y="80" as="sourcePoint" />
            <mxPoint x="530" y="-100" as="targetPoint" />
            <Array as="points">
              <mxPoint x="444" y="-100" />
            </Array>
          </mxGeometry>
        </mxCell>
        <mxCell id="-kCtTFRmVq8t6nt-etvU-4" value="" style="endArrow=none;html=1;rounded=0;exitX=1;exitY=0.3333333333333333;exitDx=0;exitDy=0;exitPerimeter=0;entryX=0;entryY=0.5;entryDx=0;entryDy=0;" parent="1" source="zqzZi_88nzhMAVSUNbBX-15" target="-kCtTFRmVq8t6nt-etvU-9" edge="1">
          <mxGeometry width="50" height="50" relative="1" as="geometry">
            <mxPoint x="1050" y="70" as="sourcePoint" />
            <mxPoint x="770" y="-70" as="targetPoint" />
            <Array as="points">
              <mxPoint x="1040" y="80" />
              <mxPoint x="1040" y="-70" />
              <mxPoint x="900" y="-70" />
            </Array>
          </mxGeometry>
        </mxCell>
        <mxCell id="-kCtTFRmVq8t6nt-etvU-5" value="" style="endArrow=none;html=1;rounded=0;exitX=0.5;exitY=0;exitDx=0;exitDy=0;exitPerimeter=0;entryX=0;entryY=0.5;entryDx=0;entryDy=0;" parent="1" source="zqzZi_88nzhMAVSUNbBX-19" target="-kCtTFRmVq8t6nt-etvU-8" edge="1">
          <mxGeometry width="50" height="50" relative="1" as="geometry">
            <mxPoint x="1060" y="200" as="sourcePoint" />
            <mxPoint x="770" y="-100" as="targetPoint" />
            <Array as="points">
              <mxPoint x="1060" y="220" />
              <mxPoint x="1060" y="-90" />
            </Array>
          </mxGeometry>
        </mxCell>
        <mxCell id="-kCtTFRmVq8t6nt-etvU-6" value="" style="endArrow=none;html=1;rounded=0;exitX=0.5;exitY=0.5;exitDx=0;exitDy=0;exitPerimeter=0;" parent="1" source="zqzZi_88nzhMAVSUNbBX-18" edge="1">
          <mxGeometry width="50" height="50" relative="1" as="geometry">
            <mxPoint x="1120" y="310" as="sourcePoint" />
            <mxPoint x="770" y="-120" as="targetPoint" />
            <Array as="points">
              <mxPoint x="1080" y="350" />
              <mxPoint x="1080" y="-120" />
            </Array>
          </mxGeometry>
        </mxCell>
        <mxCell id="-kCtTFRmVq8t6nt-etvU-7" value="" style="triangle;whiteSpace=wrap;html=1;rotation=-180;" parent="1" vertex="1">
          <mxGeometry x="755" y="-130" width="14" height="20" as="geometry" />
        </mxCell>
        <mxCell id="-kCtTFRmVq8t6nt-etvU-8" value="" style="triangle;whiteSpace=wrap;html=1;rotation=-180;" parent="1" vertex="1">
          <mxGeometry x="741" y="-110" width="14" height="20" as="geometry" />
        </mxCell>
        <mxCell id="-kCtTFRmVq8t6nt-etvU-9" value="" style="triangle;whiteSpace=wrap;html=1;rotation=-180;" parent="1" vertex="1">
          <mxGeometry x="745" y="-90" width="14" height="20" as="geometry" />
        </mxCell>
        <mxCell id="GCEy5hv7qYyDN-tJnRn2-1" value="Người dùng" style="shape=umlActor;verticalLabelPosition=bottom;verticalAlign=top;html=1;outlineConnect=0;" vertex="1" parent="1">
          <mxGeometry x="885" y="-440" width="30" height="60" as="geometry" />
        </mxCell>
        <mxCell id="GCEy5hv7qYyDN-tJnRn2-2" value="" style="endArrow=classic;html=1;rounded=0;exitX=1;exitY=0.3333333333333333;exitDx=0;exitDy=0;exitPerimeter=0;entryX=0.002;entryY=0.62;entryDx=0;entryDy=0;entryPerimeter=0;" edge="1" parent="1" source="GCEy5hv7qYyDN-tJnRn2-1" target="GCEy5hv7qYyDN-tJnRn2-3">
          <mxGeometry width="50" height="50" relative="1" as="geometry">
            <mxPoint x="940" y="-410" as="sourcePoint" />
            <mxPoint x="990" y="-420" as="targetPoint" />
          </mxGeometry>
        </mxCell>
        <mxCell id="GCEy5hv7qYyDN-tJnRn2-3" value="Đăng nhập" style="ellipse;whiteSpace=wrap;html=1;" vertex="1" parent="1">
          <mxGeometry x="955" y="-440" width="75" height="30" as="geometry" />
        </mxCell>
        <mxCell id="GCEy5hv7qYyDN-tJnRn2-10" value="Người dùng" style="shape=umlActor;verticalLabelPosition=bottom;verticalAlign=top;html=1;outlineConnect=0;" vertex="1" parent="1">
          <mxGeometry x="1485" y="-420" width="30" height="60" as="geometry" />
        </mxCell>
        <mxCell id="GCEy5hv7qYyDN-tJnRn2-13" value="" style="endArrow=classic;html=1;rounded=0;entryX=0.011;entryY=0.695;entryDx=0;entryDy=0;entryPerimeter=0;" edge="1" parent="1" source="GCEy5hv7qYyDN-tJnRn2-10" target="GCEy5hv7qYyDN-tJnRn2-14">
          <mxGeometry width="50" height="50" relative="1" as="geometry">
            <mxPoint x="1527.5" y="-200" as="sourcePoint" />
            <mxPoint x="1577.5" y="-210" as="targetPoint" />
          </mxGeometry>
        </mxCell>
        <mxCell id="GCEy5hv7qYyDN-tJnRn2-14" value="Đổi mật khẩu" style="ellipse;whiteSpace=wrap;html=1;" vertex="1" parent="1">
          <mxGeometry x="1560" y="-420" width="100" height="40" as="geometry" />
        </mxCell>
        <mxCell id="GCEy5hv7qYyDN-tJnRn2-15" value="Quan ly" style="shape=umlActor;verticalLabelPosition=bottom;verticalAlign=top;html=1;outlineConnect=0;" vertex="1" parent="1">
          <mxGeometry x="2570" y="250" width="30" height="60" as="geometry" />
        </mxCell>
        <mxCell id="GCEy5hv7qYyDN-tJnRn2-16" value="Đăng nhập" style="ellipse;whiteSpace=wrap;html=1;" vertex="1" parent="1">
          <mxGeometry x="2640" y="260" width="90" height="45" as="geometry" />
        </mxCell>
        <mxCell id="GCEy5hv7qYyDN-tJnRn2-17" value="" style="endArrow=classic;html=1;rounded=0;entryX=0;entryY=0.5;entryDx=0;entryDy=0;" edge="1" parent="1" source="GCEy5hv7qYyDN-tJnRn2-15" target="GCEy5hv7qYyDN-tJnRn2-16">
          <mxGeometry width="50" height="50" relative="1" as="geometry">
            <mxPoint x="2520" y="430" as="sourcePoint" />
            <mxPoint x="2570" y="380" as="targetPoint" />
          </mxGeometry>
        </mxCell>
        <mxCell id="GCEy5hv7qYyDN-tJnRn2-18" value="Xóa tài khoản" style="ellipse;whiteSpace=wrap;html=1;" vertex="1" parent="1">
          <mxGeometry x="2960" y="262.5" width="110" height="42.5" as="geometry" />
        </mxCell>
        <mxCell id="GCEy5hv7qYyDN-tJnRn2-21" value="Include" style="endArrow=open;endSize=12;dashed=1;html=1;rounded=0;entryX=1;entryY=0.5;entryDx=0;entryDy=0;exitX=0;exitY=0.5;exitDx=0;exitDy=0;" edge="1" parent="1" source="GCEy5hv7qYyDN-tJnRn2-22" target="GCEy5hv7qYyDN-tJnRn2-16">
          <mxGeometry width="160" relative="1" as="geometry">
            <mxPoint x="2820" y="260" as="sourcePoint" />
            <mxPoint x="3070" y="190" as="targetPoint" />
            <Array as="points" />
          </mxGeometry>
        </mxCell>
        <mxCell id="GCEy5hv7qYyDN-tJnRn2-22" value="Quản lý tài khoản" style="ellipse;whiteSpace=wrap;html=1;" vertex="1" parent="1">
          <mxGeometry x="2820" y="262.5" width="110" height="40" as="geometry" />
        </mxCell>
        <mxCell id="GCEy5hv7qYyDN-tJnRn2-23" value="" style="endArrow=classic;html=1;rounded=0;entryX=0;entryY=0.5;entryDx=0;entryDy=0;exitX=1;exitY=0.5;exitDx=0;exitDy=0;" edge="1" parent="1" source="GCEy5hv7qYyDN-tJnRn2-22" target="GCEy5hv7qYyDN-tJnRn2-18">
          <mxGeometry width="50" height="50" relative="1" as="geometry">
            <mxPoint x="2970" y="240" as="sourcePoint" />
            <mxPoint x="3020" y="190" as="targetPoint" />
          </mxGeometry>
        </mxCell>
      </root>
    </mxGraphModel>
  </diagram>
</mxfile>
